<?xml version="1.0" encoding="UTF-8" standalone="no"?>
<!-- Created with Inkscape (http://www.inkscape.org/) -->

<svg
   xmlns:dc="http://purl.org/dc/elements/1.1/"
   xmlns:cc="http://creativecommons.org/ns#"
   xmlns:rdf="http://www.w3.org/1999/02/22-rdf-syntax-ns#"
   xmlns:svg="http://www.w3.org/2000/svg"
   xmlns="http://www.w3.org/2000/svg"
   xmlns:sodipodi="http://sodipodi.sourceforge.net/DTD/sodipodi-0.dtd"
   xmlns:inkscape="http://www.inkscape.org/namespaces/inkscape"
   width="210mm"
   height="297mm"
   viewBox="0 0 210 297"
   version="1.1"
   id="svg8"
   inkscape:version="0.92.4 (5da689c313, 2019-01-14)"
   sodipodi:docname="logo.svg">
  <defs
     id="defs2" />
  <sodipodi:namedview
     id="base"
     pagecolor="#ffffff"
     bordercolor="#666666"
     borderopacity="1.0"
     inkscape:pageopacity="0.0"
     inkscape:pageshadow="2"
     inkscape:zoom="0.7"
     inkscape:cx="-35.747817"
     inkscape:cy="533.15148"
     inkscape:document-units="mm"
     inkscape:current-layer="layer1"
     showgrid="false"
     inkscape:window-width="1920"
     inkscape:window-height="1017"
     inkscape:window-x="-8"
     inkscape:window-y="-8"
     inkscape:window-maximized="1" />
  <metadata
     id="metadata5">
    <rdf:RDF>
      <cc:Work
         rdf:about="">
        <dc:format>image/svg+xml</dc:format>
        <dc:type
           rdf:resource="http://purl.org/dc/dcmitype/StillImage" />
        <dc:title></dc:title>
      </cc:Work>
    </rdf:RDF>
  </metadata>
  <g
     inkscape:label="Layer 1"
     inkscape:groupmode="layer"
     id="layer1">
    <path
       style="fill:#cbac98;fill-opacity:1;stroke-width:0.26458335"
       d="m 115.95285,114.67917 c -3.8808,-0.39853 -7.37799,-1.94582 -9.54505,-4.22307 -2.06905,-2.17425 -2.47458,-3.36585 -2.30904,-6.78472 0.072,-1.48668 0.0542,-3.06023 -0.0396,-3.4968 l -0.17048,-0.793753 -0.35063,1.058343 c -1.35213,4.08116 -4.320498,7.96617 -7.086339,9.27462 -1.360143,0.64345 -1.676241,0.69157 -3.498617,0.53267 -1.823945,-0.15905 -2.169277,-0.10628 -3.855607,0.58918 -3.727497,1.53725 -8.01987,2.04603 -13.493608,1.59942 -4.868362,-0.39723 -8.620946,-1.46089 -12.038542,-3.41231 -1.114854,-0.63657 -1.195744,-0.75842 -1.27106,-1.91466 -0.07312,-1.12249 0.01112,-1.32829 0.926041,-2.26237 0.701091,-0.71577 1.664727,-1.27927 3.175902,-1.85716 1.193184,-0.45628 2.264747,-0.83026 2.381251,-0.83108 0.116504,-7.9e-4 0.66365,-0.12694 1.21588,-0.28029 l 1.004056,-0.27882 -0.593621,-0.97648 c -0.326492,-0.53706 -1.027384,-1.571793 -1.557539,-2.299393 -1.465291,-2.01102 -1.677046,-2.75227 -1.475755,-5.16592 0.118361,-1.41926 0.361334,-2.4225 0.750034,-3.09692 1.156164,-2.006 2.879397,-4.0127 4.63119,-5.393 1.423929,-1.12196 1.684713,-1.43135 1.264663,-1.5004 -0.829183,-0.1363 -2.076736,-0.63989 -2.526621,-1.0199 -0.34224,-0.28909 -0.713713,-0.23911 -2.248958,0.30258 -2.989782,1.05489 -5.761466,0.73622 -7.792458,-0.89593 -0.670942,-0.53919 -1.071784,-0.70569 -1.255821,-0.52165 -0.654571,0.65457 -1.470574,0.0978 -2.383814,-1.62657 -0.500954,-0.94588 -1.851429,-3.42475 -3.001056,-5.50859 -1.149627,-2.08385 -2.090231,-3.8331 -2.090231,-3.88722 0,-0.0541 -0.479703,-1.10318 -1.066005,-2.33123 l -1.066005,-2.23282 0.07382,-3.66955 c 0.09945,-4.94359 0.174419,-4.95301 4.169544,-0.52369 2.500651,2.77243 3.182087,3.72324 4.22874,5.90041 0.686244,1.42747 1.852309,3.51829 2.591256,4.64627 0.738948,1.12798 1.383176,2.16539 1.431618,2.30535 0.05616,0.16227 0.711276,0.16407 1.807869,0.005 0.945885,-0.13723 2.39765,-0.25191 3.226143,-0.25483 1.25322,-0.004 1.575564,-0.10414 1.918229,-0.59336 0.554949,-0.7923 0.519672,-1.35093 -0.181886,-2.88018 l -0.593764,-1.29429 h -1.398156 c -1.47225,0 -3.510515,-0.84866 -5.785192,-2.40874 -2.098095,-1.43897 -3.054591,-4.1736 -2.10327,-6.01325 0.458418,-0.88648 2.705432,-3.0195 3.751823,-3.56148 0.423059,-0.21912 1.731217,-1.34676 2.907018,-2.50586 1.808764,-1.78307 2.351937,-2.16233 3.528899,-2.46398 1.16817,-0.29939 1.468127,-0.50655 1.871895,-1.29275 0.512035,-0.99702 1.721597,-1.86227 2.603318,-1.86227 0.294407,0 0.784908,0.31734 1.089999,0.7052 l 0.554709,0.7052 0.822481,-0.84126 c 0.452367,-0.46269 1.08997,-0.90839 1.4169,-0.99044 2.895698,-0.72677 3.949541,1.9218 3.351721,8.42371 -0.275334,2.99455 -0.262036,3.19901 0.280688,4.3161 0.313343,0.64496 0.790787,1.24281 1.060985,1.32857 0.877257,0.27843 3.871105,3.30021 5.097677,5.14524 1.090795,1.64079 1.317784,1.83484 2.58009,2.20573 0.761238,0.22366 1.919851,0.47534 2.574694,0.55929 1.242913,0.15933 4.579705,1.84392 5.330021,2.69086 0.633011,0.71454 0.927667,4.53924 0.40399,5.2439 -0.354137,0.47653 -0.302808,0.61543 0.611106,1.65369 1.720475,1.95456 4.238215,7.44218 4.238215,9.23752 0,0.48985 0.18635,0.63556 0.99219,0.77584 0.5457,0.095 2.12328,0.7751 3.50573,1.51136 3.95517,2.10643 4.42961,2.31399 5.91817,2.58917 2.21015,0.40857 4.52914,-0.0356 6.54295,-1.2533 1.45138,-0.87759 1.89374,-1.34367 3.0923,-3.2581 3.54313,-5.65935 3.55631,-9.23055 0.0745,-20.18973 -1.46688,-4.6171 -1.39281,-6.54345 0.40224,-10.46041 1.71303,-3.738 4.94011,-6.62727 8.96857,-8.02972 1.84512,-0.64236 2.52001,-0.73889 5.1876,-0.74197 3.48812,-0.004 6.14926,0.5508 8.96789,1.86973 1.96595,0.91993 2.64995,1.46045 2.64995,2.09407 0,0.24516 -0.5673,1.56616 -1.26067,2.93556 -1.61696,3.1935 -2.29254,5.79154 -2.26423,8.70752 0.0231,2.37592 0.58758,4.92469 2.33922,10.56144 1.2023,3.86897 1.55464,6.33841 1.19671,8.38723 -0.14957,0.8561 -0.50592,2.98529 -0.79189,4.73154 -0.74387,4.54224 -1.46055,7.1035 -2.6729,9.55231 -2.51222,5.074443 -7.00632,8.782593 -15.59624,12.868713 -4.81356,2.28976 -10.08971,3.20668 -15.34583,2.6669 z m 6.09235,-0.62478 c 3.10631,-0.38156 5.77371,-1.16772 8.72431,-2.57128 8.58993,-4.08613 13.08402,-7.79428 15.59625,-12.868723 1.2219,-2.46812 1.92931,-5.01095 2.69422,-9.6846 0.2977,-1.81901 0.63614,-3.84307 0.75209,-4.49791 0.28705,-1.62129 -0.0681,-3.85819 -1.181,-7.43936 -1.90039,-6.11497 -2.3264,-8.12385 -2.34998,-11.08148 -0.0276,-3.46215 0.552,-5.82821 2.24868,-9.17958 1.42975,-2.82413 1.47035,-2.7039 -1.36021,-4.02841 -4.33024,-2.02625 -9.28964,-2.45329 -13.09716,-1.12776 -5.32528,1.85393 -9.29603,6.46865 -10.22442,11.88259 -0.31228,1.82109 -0.30804,1.84773 0.92032,5.77936 2.0269,6.48759 2.34834,7.94322 2.49262,11.28792 0.12145,2.81529 0.0701,3.30944 -0.55062,5.30037 -0.40261,1.29129 -1.26062,3.11575 -2.0832,4.42963 -1.20067,1.91779 -1.63971,2.37977 -3.10171,3.26378 -2.08107,1.25834 -4.69547,1.71983 -7.29902,1.28841 -1.71655,-0.28444 -2.15752,-0.47117 -6.21102,-2.62996 -1.38245,-0.73626 -2.96003,-1.41637 -3.50573,-1.51137 -0.80585,-0.14027 -0.99219,-0.28598 -0.99219,-0.77583 0,-1.8626 -2.47679,-7.1855 -4.38208,-9.41761 -0.645795,-0.75657 -1.174171,-1.48492 -1.174171,-1.61856 0,-0.13364 0.236472,-0.47945 0.525495,-0.76847 0.454255,-0.45426 0.503258,-0.75017 0.361468,-2.18282 -0.09243,-0.93394 -0.350483,-1.87133 -0.591219,-2.14765 -0.732907,-0.84123 -4.075346,-2.53094 -5.322827,-2.69087 -0.654844,-0.0839 -1.813457,-0.33562 -2.574695,-0.55929 -1.262306,-0.37088 -1.489295,-0.56493 -2.58009,-2.20572 -1.232056,-1.85328 -4.221636,-4.8672 -5.106453,-5.14803 -0.275027,-0.0873 -0.770914,-0.73702 -1.101971,-1.44384 -0.58569,-1.25047 -0.59345,-1.37301 -0.287674,-4.5434 0.172839,-1.79204 0.235688,-3.93516 0.139668,-4.76249 -0.184155,-1.58668 -0.901853,-3.06565 -1.621721,-3.34189 -0.625824,-0.24015 -1.984341,0.58418 -2.710024,1.64441 -0.635289,0.92816 -1.354958,1.22474 -1.354958,0.55839 0,-0.19866 -0.247639,-0.67602 -0.550312,-1.0608 -0.54514,-0.69304 -0.557808,-0.69524 -1.348097,-0.23412 -0.438783,0.25602 -1.014153,0.88679 -1.278602,1.40172 -0.403767,0.7862 -0.703725,0.99335 -1.871895,1.29275 -1.176962,0.30164 -1.720135,0.6809 -3.528899,2.46398 -1.175801,1.1591 -2.48396,2.28673 -2.907019,2.50586 -1.04639,0.54198 -3.293404,2.675 -3.751822,3.56148 -0.535169,1.0349 -0.466782,1.68676 0.317332,3.02475 1.196536,2.04173 5.204964,4.3389 7.571129,4.3389 h 1.398156 l 0.593765,1.29429 c 0.680383,1.48309 0.767797,3.102 0.21046,3.89772 -0.329338,0.47019 -0.760567,0.57022 -3.062854,0.71048 -1.473752,0.0898 -3.103906,0.31651 -3.622564,0.50382 -0.850486,0.30715 -0.971825,0.29165 -1.236626,-0.15801 -0.161486,-0.27421 -0.878308,-1.40531 -1.592937,-2.51354 -0.714629,-1.10823 -1.859317,-3.1798 -2.54375,-4.60349 -1.029051,-2.14054 -1.737157,-3.1365 -4.091452,-5.75469 -1.565867,-1.74139 -2.96706,-3.16616 -3.113765,-3.16616 -0.172315,0 -0.219314,1.19414 -0.13277,3.37344 0.128059,3.22475 0.176253,3.45766 1.093451,5.28433 0.527717,1.05099 0.959486,1.96924 0.959486,2.04055 0,0.0713 0.814328,1.59266 1.809616,3.38077 0.995289,1.78812 2.14871,3.90596 2.563159,4.70633 1.663531,3.21254 1.643235,3.18993 2.450562,2.72917 0.694573,-0.39642 0.749214,-0.37917 1.725381,0.54462 1.39649,1.32157 3.527294,1.93474 5.379545,1.54806 0.748304,-0.15622 1.871996,-0.53114 2.497092,-0.83315 1.361318,-0.65772 1.659875,-0.67712 2.108167,-0.13696 0.48846,0.58856 2.017307,1.17534 3.062332,1.17534 0.491554,0 0.893731,0.1227 0.893731,0.27267 0,0.29541 -1.200314,1.40444 -3.042179,2.81081 -2.372285,1.81137 -4.488527,5.13472 -4.760193,7.47541 -0.221015,1.90429 0.02592,2.70626 1.433225,4.65465 1.564122,2.16551 2.400397,3.537023 2.400397,3.936693 0,0.23638 -0.516194,0.49619 -1.389063,0.69916 -2.846325,0.66187 -5.584221,1.87917 -6.631406,2.94842 -1.756263,1.79327 -1.209027,2.60274 2.993385,4.42781 3.780813,1.64197 9.937568,2.52003 14.810749,2.11226 3.06196,-0.25621 4.6062,-0.61335 7.017235,-1.62287 1.682371,-0.70442 2.042938,-0.76176 3.931888,-0.62527 1.856611,0.13416 2.231851,0.0783 3.498618,-0.521 2.14853,-1.01641 4.142486,-3.22287 5.682396,-6.28798 0.72,-1.43314 1.38338,-3.070253 1.47417,-3.638023 0.12056,-0.75392 0.29276,-1.03232 0.6385,-1.03232 0.72568,0 1.09946,2.227953 0.88825,5.294513 -0.15599,2.26489 -0.11213,2.68655 0.40044,3.84999 2.16321,4.91004 9.15292,7.67899 16.96261,6.71968 z m -5.82777,-0.69813 c -1.83466,-0.18841 -4.65859,-0.96829 -6.08542,-1.68058 -1.75888,-0.87807 -4.02977,-3.20344 -4.48989,-4.59761 -0.23381,-0.70846 -0.28001,-1.72821 -0.15227,-3.36108 0.21478,-2.74553 -0.13395,-4.818533 -1.0336,-6.144243 -0.54561,-0.804 -0.61672,-1.21813 -0.61672,-3.59184 v -2.68305 l 0.96343,0.16735 c 0.52988,0.0921 1.97546,0.71468 3.21239,1.38362 5.02911,2.71982 6.28687,3.0976 9.32656,2.80127 2.09482,-0.20421 2.23163,0.008 0.83233,1.29024 l -0.9536,0.87391 -0.2659,3.518633 c -0.33689,4.45825 0.005,5.84949 1.9101,7.77139 1.65184,1.66646 2.63256,1.70193 5.48628,0.19844 1.10483,-0.58208 2.32986,-1.05833 2.7223,-1.05833 0.80745,0 2.10859,-1.14286 2.10859,-1.85209 0,-0.46835 -1.21301,-1.85208 -1.62357,-1.85208 -0.12568,0 -0.22851,-0.53037 -0.22851,-1.17859 0,-1.28428 -1.08986,-4.603893 -1.65309,-5.035163 -0.19289,-0.1477 -0.6127,-0.64195 -0.9329,-1.09834 -0.75986,-1.08305 -2.39195,-1.74016 -3.77342,-1.51926 -1.44322,0.23078 -1.40665,-0.39516 0.0716,-1.22599 2.75781,-1.54997 5.17527,-4.86313 6.4267,-8.80788 1.17116,-3.69169 0.83411,-7.33895 -1.31293,-14.2077 -1.76488,-5.64615 -1.86842,-6.20823 -1.51893,-8.2463 0.87873,-5.12432 4.43935,-9.2658 9.39707,-10.93005 3.68567,-1.23724 8.95678,-0.80346 13.16042,1.08302 0.86169,0.3867 1.56671,0.87089 1.56671,1.07596 0,0.20508 -0.5217,1.46874 -1.15932,2.80814 -0.63763,1.3394 -1.37075,3.20918 -1.62915,4.15506 -0.63615,2.32864 -0.64017,6.17264 -0.009,8.6937 0.36321,1.45096 0.40861,1.99546 0.17828,2.13781 -0.3818,0.23597 -0.0948,1.07474 0.36778,1.07474 0.18574,0 0.3987,0.20836 0.47325,0.46303 2.28354,7.8006 2.37664,8.26822 1.64596,8.26822 -0.21828,0 -0.39687,-0.13633 -0.39687,-0.30296 0,-0.16663 -0.4249,-1.18637 -0.94422,-2.26609 -0.75248,-1.56445 -0.88023,-2.04024 -0.62906,-2.34287 0.25007,-0.30131 0.23296,-0.37974 -0.0829,-0.37974 -0.21892,0 -0.97764,-0.54461 -1.68605,-1.21024 -0.70841,-0.66563 -1.92117,-1.64035 -2.69502,-2.16604 -1.1437,-0.77694 -1.37555,-1.05797 -1.23891,-1.50174 0.0924,-0.30027 0.27051,-0.95031 0.39568,-1.44454 0.35151,-1.38787 1.40949,-1.76411 2.60535,-0.9265 0.98116,0.68724 0.95305,0.22189 -0.032,-0.52943 -0.56355,-0.42984 -1.24051,-0.68818 -1.80332,-0.68819 -0.71563,0 -1.05581,-0.19394 -1.65298,-0.94237 -1.07817,-1.35126 -4.38921,-2.89688 -6.06543,-2.83139 -1.81703,0.071 -3.10453,1.08852 -3.10453,2.45357 0,0.84103 -0.10297,1.0241 -0.65382,1.16235 -0.86757,0.21775 -1.3093,1.04349 -0.93368,1.74535 0.29352,0.54843 0.50518,0.6224 1.5378,0.53736 1.18637,-0.0977 4.43118,0.61452 5.73824,1.25951 0.72761,0.35905 2.1303,1.1732 3.11711,1.80922 0.9868,0.63603 1.94258,1.15641 2.12394,1.15641 0.53517,0 1.50583,0.7907 1.50583,1.22665 0,0.31094 -0.18306,0.36269 -0.80204,0.22674 -0.69393,-0.15241 -0.94357,-0.0346 -1.85208,0.87389 -0.57753,0.57753 -1.05005,1.30218 -1.05005,1.61034 0,1.02056 -0.65113,0.55556 -1.38011,-0.98557 -0.94218,-1.99187 -2.2524,-3.64597 -3.85685,-4.86913 -1.72104,-1.31204 -2.57971,-1.46435 -4.0506,-0.71848 -1.34774,0.68342 -1.55077,0.92772 -1.5563,1.87267 -0.005,0.81901 1.02399,3.40872 1.35414,3.40872 0.32609,0 0.285,0.99269 -0.0496,1.19951 -0.18741,0.11583 -0.15539,0.36101 0.0976,0.74711 0.60255,0.91961 0.82716,2.28672 0.37569,2.28672 -0.59221,0 -1.25266,0.89626 -1.25266,1.6999 0,1.13603 0.77467,3.52783 1.19484,3.68906 0.6994,0.26839 1.26037,-0.62097 1.05004,-1.66469 -0.65414,-3.24594 -0.0131,-3.40709 2.61469,-0.65729 1.14229,1.19533 2.28859,2.71598 2.7566,3.65682 1.93234,3.88459 3.23175,6.698 3.23175,6.99723 0,0.17782 -0.24771,0.65835 -0.55046,1.06784 -0.57705,0.7805 -0.62066,2.15559 -0.074,2.33481 0.37398,0.12262 1.41826,-1.52016 1.41826,-2.23109 0,-0.65301 0.69226,-1.27209 1.68754,-1.50915 1.14653,-0.27308 2.28121,-1.53729 2.28121,-2.54163 0,-1.16922 -1.58961,-2.79882 -2.33895,-2.39778 -0.73769,0.3948 -0.90654,1.06627 -0.44518,1.7704 0.22158,0.33818 0.40288,0.77689 0.40288,0.97493 0,0.4169 -1.0906,1.51064 -1.50631,1.51064 -0.29729,0 -0.71717,-0.93468 -1.00366,-2.23417 -0.0944,-0.42844 -0.71112,-1.8728 -1.37037,-3.20971 -0.99126,-2.0102 -1.65191,-2.89948 -3.81853,-5.14003 -3.30516,-3.41797 -3.56554,-4.60509 -0.63551,-2.89741 0.72761,0.42407 1.8587,1.07559 2.51354,1.44782 1.62492,0.92366 2.92937,1.88864 3.33402,2.46637 0.18555,0.26491 1.02935,0.99947 1.87511,1.63236 0.84576,0.63289 1.86745,1.51626 2.27041,1.96305 l 0.73266,0.81234 0.91157,-1.02538 c 0.9907,-1.11438 1.98873,-2.86114 1.98873,-3.48068 0,-0.2138 0.19162,-0.38873 0.42583,-0.38873 0.47389,0 0.50116,-0.35419 -0.38703,5.02709 -1.10947,6.72198 -2.28997,9.83028 -4.95103,13.036223 -2.40886,2.9021 -6.76822,5.87341 -12.63416,8.61138 -4.57731,2.13649 -9.61768,3.0124 -14.46819,2.51428 z m 5.56319,-0.62478 c 3.45147,-0.42397 5.88429,-1.20562 9.84045,-3.16171 8.19058,-4.04976 12.29598,-7.84915 14.33471,-13.266203 0.54675,-1.45277 1.35451,-4.99744 1.86121,-8.16753 l 0.14802,-0.92604 -0.94678,1.12448 c -1.08579,1.28959 -2.23647,1.52847 -2.81887,0.58518 -0.18313,-0.29662 -1.13434,-1.13642 -2.1138,-1.86622 -0.97946,-0.7298 -1.94232,-1.55746 -2.1397,-1.83925 -0.42899,-0.61248 -1.76833,-1.6056 -3.22322,-2.39002 -0.58208,-0.31384 -1.26742,-0.75445 -1.52298,-0.97914 -0.25555,-0.22469 -0.51593,-0.35723 -0.57862,-0.29454 -0.0627,0.0627 0.77691,1.08859 1.86576,2.27979 2.07264,2.26744 4.06447,5.75103 4.56691,7.98724 0.29504,1.31316 0.46816,1.547 0.85723,1.15793 0.20319,-0.20319 0.20192,-0.43931 -0.004,-0.82486 -0.44459,-0.83072 -0.34451,-1.84246 0.24007,-2.42705 0.79466,-0.79466 1.76806,-0.6661 2.80458,0.37042 0.79137,0.79136 0.89959,1.06436 0.89959,2.26931 0,1.15556 -0.11881,1.48853 -0.75985,2.12957 -0.41792,0.41792 -1.10253,0.84147 -1.52136,0.94123 -0.99529,0.23706 -1.68754,0.85613 -1.68754,1.50914 0,0.2877 -0.25187,0.93061 -0.5597,1.42869 -0.47174,0.76329 -0.69004,0.89294 -1.38907,0.82498 -0.79801,-0.0776 -0.83232,-0.13145 -0.90779,-1.42521 -0.0588,-1.00788 0.0466,-1.49902 0.42096,-1.96131 0.4945,-0.61068 0.49138,-0.63254 -0.31844,-2.23057 -0.44981,-0.88762 -1.28718,-2.61607 -1.86082,-3.84101 -1.31249,-2.8027 -5.77863,-7.98806 -4.90818,-5.6986 0.39707,1.04434 0.31755,2.68022 -0.15315,3.15092 -0.44432,0.44432 -1.35926,0.54063 -1.8962,0.19961 -0.49503,-0.31441 -1.12152,-2.65182 -1.12475,-4.1964 -0.002,-1.17363 0.0991,-1.45006 0.70886,-1.92971 0.6998,-0.55046 0.70415,-0.57268 0.25915,-1.32599 -0.24891,-0.42138 -0.43374,-1.10083 -0.41073,-1.50988 0.023,-0.40905 -0.21267,-1.31915 -0.52374,-2.02244 -0.66877,-1.51203 -0.75322,-3.65521 -0.16713,-4.24131 0.21914,-0.21914 0.65775,-0.48074 0.97468,-0.58133 0.56551,-0.17949 0.56308,-0.18979 -0.13049,-0.55319 -1.33619,-0.7001 -1.27744,-2.83584 0.0922,-3.35283 0.66998,-0.25289 0.78181,-0.4337 0.78181,-1.26403 0,-0.80063 0.16461,-1.09447 0.94773,-1.69179 0.80626,-0.61496 1.2226,-0.72826 2.78901,-0.75901 1.79625,-0.0352 1.82736,-0.0475 1.27192,-0.49915 -0.31315,-0.25467 -0.94313,-0.46347 -1.39995,-0.46401 -0.45682,-5.6e-4 -1.22976,-0.24436 -1.71764,-0.5418 -0.81608,-0.49753 -0.93708,-0.50804 -1.51205,-0.1313 -0.975,0.63884 -2.10562,0.5202 -2.74106,-0.28764 -0.68338,-0.86877 -0.69201,-1.5776 -0.0324,-2.65941 0.59405,-0.97427 1.09289,-1.28671 2.46543,-1.5442 1.64652,-0.30889 2.73361,0.0369 3.37412,1.07327 0.46291,0.74901 0.72807,0.91706 1.44698,0.91706 0.64488,0 1.25807,0.30698 2.29353,1.14817 0.77732,0.63149 1.91933,1.46642 2.53779,1.8554 l 1.12448,0.70724 0.006,-0.99551 c 0.003,-0.5784 0.22268,-1.27264 0.5233,-1.65696 0.57973,-0.74115 0.76205,-1.92622 0.21166,-1.37584 -0.49405,0.49406 -2.50305,0.3741 -3.66533,-0.21885 -1.44527,-0.73732 -2.63175,-2.42787 -2.63175,-3.74982 0,-1.2078 0.54965,-2.39201 1.38028,-2.97381 l 0.58955,-0.41293 h -0.73983 c -1.25531,0 -4.63867,1.28221 -6.22385,2.35868 -2.94855,2.00232 -5.17226,5.38716 -5.84046,8.89012 -0.33405,1.75118 -0.3392,1.72438 1.42377,7.40432 1.53698,4.95188 1.99007,7.33561 1.99648,10.50353 0.007,3.37195 -0.6718,5.87647 -2.38744,8.81106 -0.59553,1.01864 -0.93173,1.70325 -0.7471,1.52135 0.58679,-0.57812 2.22645,-0.39759 3.10529,0.3419 1.45219,1.22194 1.97539,2.36384 1.81134,3.95331 -0.1287,1.24706 -0.0724,1.47663 0.49202,2.0069 0.35055,0.32931 0.89487,1.14454 1.20962,1.8116 1.14845,2.434013 1.81366,2.649933 1.81366,0.588703 0,-0.689913 0.14165,-1.396033 0.31477,-1.569163 0.2433,-0.2433 0.0481,-0.57069 -0.85989,-1.44198 -0.84977,-0.81543 -1.3052,-1.54395 -1.64659,-2.63391 -0.3537,-1.12924 -0.75832,-1.75894 -1.61512,-2.51354 -1.28676,-1.13327 -1.60456,-1.84376 -1.34775,-3.01303 0.23078,-1.05073 1.20713,-1.45372 2.5517,-1.05322 1.38316,0.41199 3.60854,2.90141 3.82963,4.28398 0.11477,0.71774 0.45339,1.3165 1.07256,1.89653 1.08344,1.01497 2.46319,3.33069 2.46319,4.13414 0,0.85232 -0.71183,2.075813 -1.32001,2.268843 -0.40955,0.12999 -0.53207,0.39942 -0.53207,1.17013 0,1.58915 -2.23969,3.72049 -3.91314,3.72384 -1.54021,0.003 -2.84564,-0.88471 -3.58757,-2.43982 -0.66839,-1.40099 -2.27344,-3.708233 -1.89066,-2.71781 0.11249,0.29104 0.26181,1.21377 0.33183,2.05052 0.07,0.83674 0.21583,1.52135 0.32401,1.52135 0.10819,0 0.5106,0.31389 0.89424,0.69754 1.39436,1.39435 0.46732,4.06496 -1.41105,4.06496 -0.39244,0 -1.61747,0.47625 -2.7223,1.05834 -1.71937,0.90585 -2.24579,1.05833 -3.65383,1.05833 -1.61128,0 -1.67061,-0.0258 -2.89079,-1.25677 -1.95122,-1.96849 -2.27045,-3.3348 -1.93757,-8.29279 0.22991,-3.424293 0.33935,-4.033103 0.81693,-4.544413 l 0.55145,-0.59041 -2.18989,-0.015 c -2.59488,-0.0178 -3.64466,-0.3714 -7.55515,-2.54515 -1.52463,-0.8475 -2.95338,-1.54088 -3.175,-1.54084 -0.69309,1.2e-4 -0.54418,3.85155 0.1941,5.02032 0.87358,1.38296 1.21455,3.487013 1.01881,6.286883 -0.20691,2.95969 0.0903,3.85262 1.90205,5.71435 2.87329,2.95257 8.07788,4.31031 13.81922,3.60506 z m -11.69056,-2.77368 c -1.54889,-0.84128 -2.39971,-3.73188 -1.39436,-4.73723 0.77644,-0.77644 2.49465,-0.26457 2.49465,0.74318 0,0.62759 0.66128,1.25652 1.13146,1.07609 1.08616,-0.4168 0.24643,-2.54286 -1.40828,-3.56553 -1.26244,-0.78023 -1.57527,-1.46178 -1.57527,-3.43202 0,-1.969823 0.34352,-2.723883 1.48992,-3.270563 1.61192,-0.76867 4.00015,-0.35427 4.43115,0.76887 0.56054,1.46076 -0.22985,2.35711 -1.86258,2.11227 -0.99843,-0.14973 -1.14596,-0.10971 -1.1319,0.30707 0.009,0.263573 0.51327,0.840253 1.12084,1.281503 1.72774,1.25478 2.29303,2.49302 2.29822,5.03414 0.005,2.34011 -0.12913,2.63172 -1.61438,3.51571 -1.11651,0.66453 -2.92336,0.74013 -3.97947,0.16651 z m 3.45031,-0.69567 c 1.41706,-0.84341 1.61918,-1.21733 1.61437,-2.98655 -0.005,-1.96902 -0.711,-3.35226 -2.29822,-4.50497 -0.94197,-0.68411 -1.10705,-0.94579 -1.12084,-1.776633 -0.0186,-1.11937 0.52751,-1.45718 1.65973,-1.02671 0.52301,0.19885 0.78185,0.16698 1.08204,-0.13321 0.51487,-0.51487 0.27114,-1.09807 -0.66019,-1.57968 -0.95529,-0.494 -1.34176,-0.48669 -2.45991,0.0465 -1.05892,0.50496 -1.48992,1.29798 -1.48992,2.741393 0,1.43599 0.40278,2.17822 1.57527,2.90286 1.30299,0.8053 1.86431,1.78606 1.86431,3.25743 0,1.06601 -0.079,1.21658 -0.79399,1.51273 -0.96859,0.4012 -1.42268,0.10966 -1.8511,-1.18849 -0.34346,-1.04068 -0.88637,-1.32777 -1.44829,-0.76584 -1.18305,1.18304 0.73533,4.02662 2.73924,4.0603 0.34662,0.006 1.061,-0.24579 1.5875,-0.55915 z m 20.4184,-4.65752 c 1.49925,-1.02347 2.36699,-2.21889 2.36699,-3.26081 0,-0.77071 0.12252,-1.04015 0.53207,-1.17014 0.29264,-0.0929 0.71511,-0.522833 0.93883,-0.955463 0.38777,-0.74986 0.36979,-0.8509 -0.3852,-2.16406 -0.43559,-0.75761 -1.19915,-1.75891 -1.69681,-2.22512 -0.63104,-0.59115 -0.95739,-1.17629 -1.07851,-1.93372 -0.24738,-1.54705 -2.83939,-4.23009 -4.08657,-4.23009 -0.64517,0 -0.90984,0.14633 -1.07673,0.59531 -0.30724,0.82651 -0.1013,1.23635 1.2039,2.3959 0.83758,0.74412 1.25609,1.39635 1.60384,2.49956 0.33829,1.07318 0.82415,1.84633 1.7287,2.75088 1.34338,1.34338 1.507,1.80578 0.83599,2.36266 -0.31577,0.26207 -0.38046,0.61107 -0.25672,1.384893 0.18947,1.18491 -0.15143,1.76913 -1.0323,1.76913 -0.70378,0 -1.273,-0.59136 -1.80125,-1.87132 -0.21457,-0.51991 -0.77715,-1.386093 -1.25018,-1.924843 -0.80235,-0.91382 -0.84819,-1.06899 -0.68324,-2.31247 0.2003,-1.50991 -0.29171,-2.58941 -1.73287,-3.80207 -0.97804,-0.82297 -1.46824,-0.84405 -2.26308,-0.0974 -0.83591,0.7853 -0.77921,1.12379 0.44597,2.66255 0.68614,0.86176 1.05833,1.59919 1.05833,2.0969 0,0.94256 0.55759,2.3196 1.40207,3.462563 0.34948,0.473 0.90365,1.42901 1.2315,2.12447 0.41203,0.87402 0.89403,1.42189 1.56095,1.77425 1.20522,0.63676 1.58605,0.64746 2.43432,0.0684 z m -7.15801,-6.909013 c 0,-0.48779 -0.37833,-1.23435 -1.05833,-2.08839 -0.73604,-0.92444 -1.05833,-1.58639 -1.05833,-2.17372 v -0.8445 l -1.22788,1.08082 c -0.67533,0.59445 -1.35994,1.0847 -1.52135,1.08945 -0.16142,0.005 0.35888,0.23382 1.15622,0.50904 0.79734,0.27522 1.66808,0.77735 1.93498,1.11584 1.04361,1.32351 1.64526,2.04873 1.70855,2.05945 0.0364,0.006 0.0661,-0.33043 0.0661,-0.74799 z m 14.66091,-22.02383 c 0.54344,-0.33138 0.66486,-0.49867 0.36245,-0.49932 -0.25013,-5.3e-4 -1.26216,-0.52138 -2.24896,-1.1574 -3.37173,-2.17319 -6.23305,-3.37619 -4.14567,-1.74299 1.34171,1.04978 2.29873,2.17938 3.30243,3.89795 l 0.81496,1.39543 0.54879,-0.69767 c 0.30183,-0.38371 0.91653,-0.92192 1.366,-1.196 z m 4.23796,-1.22792 c -0.37579,-1.69605 -1.54868,-3.98715 -2.25465,-4.40417 -0.66235,-0.39126 -0.76365,-0.39224 -1.14481,-0.0111 -0.22998,0.22998 -0.41816,0.63804 -0.41816,0.90678 0,0.26875 -0.0603,0.6472 -0.13396,0.841 -0.0799,0.21024 0.32028,0.63881 0.99218,1.06249 0.61939,0.39057 1.47586,1.07518 1.90326,1.52136 0.96145,1.00366 1.26532,1.02772 1.05614,0.0836 z m -0.79627,-7.18271 c -0.15535,-1.17107 -0.23492,-1.31199 -0.57935,-1.02614 -0.22599,0.18755 -1.06169,0.32237 -1.9256,0.31063 -1.40968,-0.0192 -1.50345,0.0159 -1.22689,0.45873 0.17131,0.27431 0.75885,0.54836 1.37315,0.64048 0.59054,0.0886 1.36586,0.38138 1.72293,0.65072 0.35707,0.26934 0.68671,0.45222 0.73253,0.4064 0.0458,-0.0458 0.002,-0.69419 -0.0968,-1.44082 z m -0.8665,-1.79298 c 0.25174,-0.30332 0.22023,-0.65874 -0.14957,-1.68713 l -0.4685,-1.30285 0.81911,-1.11382 c 0.96133,-1.3072 0.99551,-1.56167 0.29491,-2.1957 -0.41056,-0.37156 -0.6054,-0.40702 -0.89873,-0.16357 -0.20599,0.17095 -0.31539,0.53693 -0.24313,0.81328 0.0779,0.29798 -0.1586,0.88267 -0.58121,1.43674 -0.61456,0.80572 -0.68697,1.08606 -0.52624,2.0374 0.18516,1.09596 0.18174,1.10197 -0.52641,0.92423 -0.89937,-0.22573 -2.51314,-1.23688 -4.3311,-2.71378 -1.03545,-0.8412 -1.64865,-1.14817 -2.29353,-1.14817 -0.71541,0 -0.98417,-0.16822 -1.43551,-0.8985 -0.6516,-1.05432 -1.50279,-1.3372 -2.89533,-0.96223 -1.02502,0.27601 -1.58043,0.743 -2.11564,1.77882 -0.25133,0.4864 -0.19632,0.69901 0.34229,1.32291 0.63648,0.73726 0.64824,0.73957 1.43076,0.28035 1.02266,-0.60013 1.68607,-0.58442 2.75149,0.0652 0.47645,0.2905 1.2441,0.52862 1.70588,0.52917 0.7111,8.5e-4 2.08225,0.8092 2.73228,1.61082 0.0728,0.0897 0.66807,0.50313 1.32292,0.91866 1.7325,1.09936 4.34132,1.34051 5.06526,0.46821 z m 1.13521,-4.01185 c -0.04,-0.049 -0.27777,0.22377 -0.52832,0.60615 -0.3942,0.60163 -0.40815,0.79178 -0.10358,1.41202 0.35033,0.71342 0.35279,0.71059 0.52832,-0.60615 0.097,-0.7276 0.1436,-1.36301 0.10358,-1.41202 z m 2.21055,-5.44808 0.77696,-1.43451 -1.48514,-0.66031 c -1.52943,-0.67999 -4.51196,-1.61524 -4.63827,-1.45445 -0.0392,0.0498 0.17803,0.44781 0.48264,0.88437 0.40642,0.58248 0.7651,0.79375 1.34758,0.79375 0.77278,0 0.79588,0.0373 0.87456,1.41313 0.0547,0.95681 -0.0541,1.61895 -0.33683,2.05052 -0.28655,0.43733 -0.31845,0.63739 -0.10164,0.63739 0.52417,0 1.28307,0.83919 1.29325,1.43007 0.005,0.30487 0.23463,-0.0711 0.50973,-0.83557 0.27511,-0.76444 0.84983,-2.03541 1.27716,-2.82439 z m -4.45425,2.00098 c 1.25416,-1.17747 1.36391,-1.3749 1.28685,-2.3151 -0.10678,-1.30285 -0.55501,-1.33194 -0.76346,-0.0495 -0.18985,1.16798 -0.6594,1.7998 -1.33756,1.7998 -0.59105,0 -0.62737,-0.46653 -0.0915,-1.17505 0.90653,-1.19853 0.10101,-3.02741 -1.57736,-3.58132 -0.71386,-0.2356 -1.09359,-0.21556 -1.84216,0.0972 -0.99922,0.41751 -2.01021,1.77491 -2.01186,2.70124 -0.002,0.83315 1.44381,2.66385 2.57405,3.26044 1.5835,0.83585 2.21983,0.7111 3.76298,-0.73768 z m -3.94746,-1.60578 c -0.44117,-0.82431 -0.3234,-1.55352 0.2819,-1.74563 0.799,-0.25359 1.12664,0.21321 0.92058,1.3116 -0.19605,1.04504 -0.76548,1.25058 -1.20248,0.43403 z m 0.97736,-4.41058 c -0.0879,-0.0879 -0.31612,-0.0973 -0.50712,-0.0209 -0.21106,0.0845 -0.14837,0.14715 0.15986,0.15985 0.27891,0.0115 0.43518,-0.0511 0.34726,-0.13897 z M 75.471595,111.11106 c -3.447614,-0.29731 -6.72743,-1.05398 -8.240621,-1.90115 -0.910833,-0.50993 -1.169136,-0.81287 -1.233499,-1.44663 -0.07111,-0.70024 0.06364,-0.88663 1.065505,-1.47376 0.630803,-0.36968 2.274782,-0.9687 3.653286,-1.33116 2.584737,-0.67964 7.204482,-1.54205 7.58354,-1.41569 0.117975,0.0393 0.258746,-0.0464 0.312827,-0.19051 0.05408,-0.14411 -0.671669,-0.65184 -1.612778,-1.1283 -2.051199,-1.03847 -4.793957,-3.449303 -5.50105,-4.835323 -1.68183,-3.29666 -0.459465,-6.99592 3.58191,-10.84 0.994434,-0.94588 2.411931,-2.30414 3.149992,-3.01835 0.738061,-0.7142 1.937242,-1.61155 2.664846,-1.99409 0.875306,-0.46021 1.613866,-1.1276 2.182813,-1.97249 0.796332,-1.18256 0.859608,-1.4361 0.855985,-3.42986 -0.0053,-2.91422 -0.538265,-4.97038 -2.083355,-8.03744 -1.734058,-3.44217 -3.238117,-4.8311 -5.231557,-4.8311 -0.928055,0 -1.329703,0.18492 -2.388523,1.09972 -1.613922,1.39439 -2.463488,2.53894 -2.463488,3.31885 0,0.60437 -0.02738,0.60975 -2.315104,0.45557 -1.738734,-0.11719 -2.644459,-0.32378 -3.638021,-0.82979 -2.239855,-1.14074 -3.836459,-2.22974 -3.836459,-2.61673 0,-0.53178 0.734528,-0.45428 1.515303,0.15988 0.797802,0.62755 1.730968,0.68402 2.188729,0.13245 0.28418,-0.34241 0.216611,-0.37419 -0.493679,-0.23213 -0.975743,0.19515 -2.15202,-0.45458 -2.15202,-1.18869 0,-0.26533 0.191017,-0.86532 0.424481,-1.33331 0.469908,-0.94195 0.334523,-1.33803 -0.282359,-0.82606 -0.486688,0.40391 -1.729622,0.14517 -1.729622,-0.36006 0,-0.45683 2.056629,-2.36075 3.174595,-2.93887 0.469622,-0.24285 1.561592,-1.19811 2.426598,-2.12281 0.865007,-0.92469 2.079789,-1.92672 2.699517,-2.22673 1.557232,-0.75384 3.428527,-0.71594 4.852493,0.0983 l 1.114658,0.63735 0.631886,-1.38022 c 0.840716,-1.83636 2.181476,-3.34044 2.977729,-3.34044 1.109113,0 1.313916,0.82703 1.212118,4.89479 -0.136467,5.45309 -0.12885,6.01256 0.09309,6.83579 0.198863,0.73764 0.184851,0.74912 -0.825087,0.6762 -1.615499,-0.11664 -1.310032,0.38474 0.503809,0.82694 2.116487,0.51598 3.240027,1.22526 5.067282,3.19891 1.541679,1.6652 4.646316,6.61814 4.646316,7.41243 0,0.2818 0.584809,0.7863 1.521354,1.31243 6.777782,3.80759 10.698105,9.50321 11.426635,16.60111 0.59256,5.7732 -1.16706,11.658733 -4.496922,15.041163 -1.891114,1.92096 -3.174338,2.46691 -5.798413,2.46691 -1.641379,0 -2.648892,0.17717 -4.494638,0.79039 -3.811562,1.26633 -7.99867,1.68884 -12.7101,1.28254 z m 8.009808,-0.76764 c 0.985655,-0.13952 2.862662,-0.60935 4.171125,-1.04407 1.845747,-0.61322 2.853259,-0.79039 4.494639,-0.79039 2.624074,0 3.907298,-0.54594 5.798413,-2.46691 3.37646,-3.42976 5.27212,-10.106983 4.37825,-15.421783 -1.04614,-6.22012 -5.12436,-11.68836 -11.307963,-15.16215 -0.936546,-0.52613 -1.521355,-1.03063 -1.521355,-1.31243 0,-0.83043 -3.154984,-5.81264 -4.782794,-7.55277 -0.915807,-0.97901 -2.178256,-1.99738 -2.957428,-2.38566 -1.890876,-0.94226 -2.346095,-0.88001 -1.334103,0.18243 1.093158,1.14765 3.165219,5.35428 3.649888,7.40988 0.214243,0.90865 0.391292,2.85903 0.393443,4.33418 0.0038,2.59054 -0.02543,2.72565 -0.855985,3.95902 -0.568947,0.84489 -1.307508,1.51229 -2.182813,1.97249 -0.727604,0.38255 -1.926786,1.27989 -2.664846,1.9941 -0.738061,0.71421 -2.155558,2.07246 -3.149992,3.01835 -3.036009,2.88779 -4.69431,6.10479 -4.202602,8.15277 0.537831,2.24008 3.093723,4.931203 6.155701,6.481403 1.551334,0.7854 1.745072,0.96941 1.745072,1.65747 v 0.77398 l -2.135349,0.19358 c -4.358471,0.39512 -10.939696,2.51775 -10.635525,3.43026 0.182867,0.5486 2.419614,1.56909 4.530254,2.06686 3.785378,0.89275 8.37509,1.08108 12.41397,0.50939 z M 71.238261,67.153067 c 0,-0.77845 0.850511,-1.92374 2.463488,-3.31731 1.152046,-0.99534 1.407713,-1.09972 2.693578,-1.09972 1.271892,0 1.42957,-0.0624 1.505262,-0.59531 0.07011,-0.49367 0.242663,-0.59112 1.010589,-0.57078 l 0.926042,0.0245 0.02622,-1.87662 c 0.01442,-1.03214 0.07236,-3.30537 0.12876,-5.05162 0.07424,-2.29886 0.0064,-3.34533 -0.245714,-3.79226 -0.339762,-0.60222 -0.361621,-0.60544 -0.8964,-0.1323 -0.75229,0.66559 -2.055574,2.74132 -2.055574,3.27389 0,0.24 -0.245095,0.65817 -0.544656,0.92927 -0.440732,0.39886 -0.630044,0.43245 -0.992187,0.17607 -1.094751,-0.77504 -2.468468,-1.38071 -3.131583,-1.38071 -1.22486,0 -2.906179,1.01817 -4.510755,2.73162 -0.845045,0.90239 -2.072226,1.95528 -2.72707,2.33978 -0.654844,0.38449 -1.4566,0.98393 -1.78168,1.33209 l -0.591054,0.63301 0.921784,-0.10762 c 0.863121,-0.10076 0.921679,-0.0595 0.920153,0.64894 -9e-4,0.4161 -0.171742,1.08265 -0.379657,1.48121 -0.346562,0.66435 -0.332683,0.75643 0.166736,1.10623 0.409028,0.2865 0.659704,0.30979 1.006068,0.0935 0.649784,-0.4058 1.32515,-0.0693 1.32515,0.66025 0,0.75704 -0.457077,1.2478 -1.177396,1.26416 -1.162839,0.0264 2.085667,1.36607 3.797896,1.56622 0.959819,0.1122 1.834422,0.21965 1.943563,0.23877 0.10914,0.0191 0.198437,-0.23975 0.198437,-0.57528 z m -2.579687,-7.45732 c -0.802067,-0.34861 -0.859896,-0.46082 -0.859896,-1.66843 0,-1.60547 0.530748,-2.17045 2.038957,-2.17045 1.327523,0 1.707464,0.4251 1.867373,2.0893 0.107055,1.11416 0.04354,1.3335 -0.495429,1.71101 -0.747795,0.52378 -1.41157,0.53381 -2.551005,0.0386 z m 2.407589,-1.7034 c -0.04856,-1.00912 -0.505302,-1.60631 -1.228528,-1.60631 -0.801245,0 -1.509791,0.77025 -1.509791,1.64128 0,0.6121 0.172332,0.83896 0.859896,1.13197 1.16648,0.49712 1.935513,0.0194 1.878423,-1.16694 z m -2.10042,0.41208 c -0.298312,-0.77739 0.01065,-1.35493 0.771632,-1.44241 0.696658,-0.0801 0.738228,-0.03 0.659196,0.79375 -0.06516,0.67921 -0.220049,0.8985 -0.680847,0.96393 -0.349828,0.0497 -0.659966,-0.0807 -0.749981,-0.31527 z m 0.949601,-0.69547 c 0,-0.14552 -0.0525,-0.26459 -0.116676,-0.26459 -0.06417,0 -0.190262,0.11907 -0.280199,0.26459 -0.08994,0.14552 -0.03743,0.26458 0.116677,0.26458 0.154109,0 0.280198,-0.11906 0.280198,-0.26458 z m 50.331996,50.474853 c -0.33017,-0.15913 -0.96641,-0.92923 -1.41388,-1.71132 -0.81036,-1.41636 -0.81288,-1.43322 -0.63608,-4.25682 0.22574,-3.605343 0.25461,-3.692493 1.37891,-4.162253 1.40009,-0.58499 2.86335,-0.50741 3.50942,0.18606 0.63033,0.67658 1.59839,3.128043 1.59839,4.047683 0,0.57159 -0.10661,0.63326 -1.03094,0.5964 -1.22962,-0.049 -2.04296,0.47941 -1.58576,1.0303 0.16513,0.19897 0.4482,0.36177 0.62904,0.36177 0.71893,0 1.72307,1.09391 1.72307,1.87711 0,0.64146 -0.22117,0.92064 -1.24242,1.5683 -1.31358,0.83304 -1.95222,0.93392 -2.92975,0.46277 z m 3.42588,-1.71641 c 0.37336,-0.44987 -0.11994,-1.03932 -1.35457,-1.61858 -0.66986,-0.31429 -0.96481,-0.63931 -1.02137,-1.12551 -0.0988,-0.84972 0.37928,-1.2631 1.74326,-1.50718 l 1.05871,-0.18946 -0.50113,-1.33896 c -0.57726,-1.542393 -1.36775,-2.497503 -2.06702,-2.497503 -0.2676,0 -0.91572,0.17932 -1.44026,0.39849 -1.08078,0.45158 -1.13119,0.59533 -1.34459,3.834843 -0.14092,2.13926 -0.11055,2.31243 0.62262,3.55011 1.07977,1.82279 1.72611,2.12267 3.01519,1.39894 0.55399,-0.31103 1.13411,-0.71837 1.28916,-0.90519 z m -59.777147,1.45405 c -0.360629,-0.17392 -0.595312,-0.52611 -0.595312,-0.89338 0,-1.42576 2.622595,-2.99109 6.652292,-3.97051 0.995193,-0.24188 2.011291,-0.58738 2.257996,-0.76777 0.411996,-0.30126 0.37985,-0.43506 -0.394409,-1.64164 -0.463629,-0.722503 -0.842962,-1.385173 -0.842962,-1.472593 0,-0.0874 -0.35587,-0.54857 -0.790823,-1.02478 -1.427933,-1.56339 -1.930957,-3.00203 -1.724324,-4.93155 0.100238,-0.93601 0.430585,-2.12654 0.738345,-2.66092 0.980756,-1.70294 2.762658,-3.89203 3.806262,-4.67604 0.557287,-0.41867 1.677329,-1.33299 2.488983,-2.03184 1.407843,-1.21218 2.627376,-1.6491 2.6235,-0.93991 -0.0011,0.1819 -0.429162,0.62181 -0.951484,0.97758 -1.577861,1.07473 -4.652584,4.36493 -5.703927,6.10366 -2.682322,4.43609 -1.638979,7.93308 3.492849,11.707073 0.576236,0.42377 1.047303,0.90902 1.046816,1.07833 -5.29e-4,0.17609 -0.991312,0.50049 -2.315104,0.75798 -5.083618,0.98882 -8.137215,2.40495 -8.438949,3.91362 -0.169541,0.8477 -0.402795,0.92939 -1.349749,0.47269 z m 0.727604,-1.02613 c 0,-0.15989 0.371769,-0.638 0.826153,-1.06246 0.530846,-0.49589 0.649064,-0.7086 0.330729,-0.59511 -1.09949,0.39202 -2.348053,1.94829 -1.563066,1.94829 0.223402,0 0.406184,-0.13082 0.406184,-0.29072 z m 9.497101,-4.10901 0.831995,-0.1664 -0.850326,-0.62735 c -0.46768,-0.34504 -0.873212,-0.62735 -0.901184,-0.62735 -0.02797,0 -0.103282,0.35719 -0.167357,0.79375 -0.127188,0.86658 -0.122581,0.86924 1.086872,0.62735 z M 70.177175,90.858767 c 0.645818,-1.45998 0.490317,-1.45324 -0.329905,0.0143 -0.691374,1.237 -1.094473,3.30854 -0.791932,4.06977 0.120098,0.30217 0.26361,-0.13923 0.403085,-1.2398 0.119123,-0.93998 0.442562,-2.2199 0.718752,-2.84427 z m 73.640065,-4.42186 c -2.49148,-1.79265 -3.65446,-3.18471 -3.88971,-4.65588 -0.0978,-0.61186 -0.0717,-1.24798 0.0581,-1.41362 0.12978,-0.16564 0.3204,-0.65835 0.42361,-1.09491 0.27005,-1.14237 1.41485,-2.24896 2.32661,-2.24896 0.41513,0 1.23743,0.24623 1.82734,0.54718 0.88591,0.45195 1.21177,0.85422 1.8726,2.31165 0.67965,1.49894 0.77976,1.98834 0.66518,3.25198 -0.15825,1.7451 -1.1808,3.78761 -1.93249,3.86005 -0.27956,0.0269 -0.8876,-0.22393 -1.3512,-0.55749 z m 2.00418,-1.21439 c 0.96036,-1.84249 0.9758,-2.84674 0.0743,-4.83492 -0.69661,-1.53635 -0.95642,-1.84062 -2.00783,-2.35143 l -1.20767,-0.58674 -0.77714,0.74454 c -0.8435,0.80813 -1.50668,2.90785 -1.24621,3.94566 0.23196,0.92419 3.57165,4.02724 4.43957,4.12499 0.0944,0.0106 0.42068,-0.45831 0.72497,-1.0421 z m 2.67518,-1.98127 c 0,-0.41158 0.14993,-0.66146 0.39687,-0.66146 0.24695,0 0.39688,0.24988 0.39688,0.66146 0,0.41158 -0.14993,0.66146 -0.39688,0.66146 -0.24694,0 -0.39687,-0.24988 -0.39687,-0.66146 z m -84.465832,-1.55099 c -1.567794,-0.58508 -2.232287,-1.13177 -2.400996,-1.97531 -0.171584,-0.85792 0.02809,-2.57105 0.379983,-3.26018 0.349876,-0.68518 2.517607,-1.28704 5.259756,-1.46035 2.684853,-0.16969 3.8301,-0.5972 4.078576,-1.52252 0.266307,-0.99171 0.15859,-2.38788 -0.243748,-3.15933 -0.571731,-1.09625 -0.493986,-1.40522 0.398506,-1.58372 0.647895,-0.12958 0.79375,-0.29065 0.79375,-0.87659 0,-0.70221 0.99364,-2.465 1.39147,-2.46858 0.110466,-0.001 0.574609,-0.35899 1.03143,-0.79556 1.325796,-1.267 3.436319,-1.02098 4.891342,0.57018 0.898168,0.9822 2.973547,5.35791 3.400904,7.17043 0.214244,0.90866 0.391293,2.59414 0.393444,3.74552 0.0053,2.81661 -0.672135,4.03231 -2.840009,5.09685 -1.307801,0.64219 -1.893631,0.7582 -4.16754,0.82525 -2.133822,0.0629 -2.825035,-0.0139 -3.571875,-0.39687 -0.826815,-0.42401 -0.922602,-0.58353 -0.89394,-1.48878 l 0.03211,-1.01388 -0.74931,0.82039 c -1.518711,1.66278 -5.106524,2.54829 -7.183848,1.77305 z m 4.967415,-1.11051 c 0.767041,-0.36287 1.587593,-0.95427 1.823449,-1.31423 0.811275,-1.23817 2.563133,-0.55202 1.782414,0.69812 -0.257514,0.41234 -0.193479,0.56196 0.409628,0.95713 0.550823,0.36092 1.263943,0.4684 3.107743,0.4684 2.090068,0 2.585458,-0.0946 3.914592,-0.74724 3.535556,-1.73614 3.827294,-5.88846 0.835031,-11.88507 -1.316022,-2.63737 -1.953038,-3.4798 -3.071202,-4.06158 -1.061889,-0.5525 -1.62973,-0.45857 -2.551176,0.42201 -0.456822,0.43656 -0.920964,0.79456 -1.03143,0.79556 -0.394626,0.004 -1.391471,1.76368 -1.391471,2.45692 0,0.52796 -0.162917,0.74708 -0.645525,0.86821 -0.562069,0.14107 -0.613378,0.24656 -0.396875,0.81601 0.272084,0.71564 0.328197,3.07454 0.09389,3.94708 -0.248794,0.9265 -1.393095,1.35295 -4.079159,1.52021 -2.689995,0.1675 -4.68893,0.71364 -5.224938,1.42751 -0.181902,0.24226 -0.33073,1.01029 -0.33073,1.70672 0,1.05992 0.108171,1.33712 0.663861,1.70123 1.980343,1.29757 3.688302,1.36009 6.091895,0.22301 z m 67.533307,-1.04743 c -1.20456,-0.9485 -2.68143,-2.04983 -3.28195,-2.4474 -0.99256,-0.65711 -2.21801,-2.39304 -2.21618,-3.13937 8e-4,-0.33673 0.84593,-0.61713 1.87636,-0.62256 0.72246,-0.004 2.17178,0.92694 3.47704,2.23295 0.67763,0.67803 2.81655,4.42483 3.06566,5.37021 0.19402,0.73632 -0.84602,0.24003 -2.92093,-1.39383 z m 1.19464,-0.59055 c -1.15302,-2.13398 -1.95591,-3.20282 -2.81966,-3.75362 -0.45632,-0.29098 -1.09093,-0.72156 -1.41026,-0.95684 -0.34322,-0.25288 -0.79842,-0.35864 -1.11338,-0.25867 -0.51194,0.16248 -0.51582,0.20465 -0.0993,1.07815 0.23843,0.49998 0.62038,0.96865 0.8488,1.04149 0.22841,0.0728 1.48685,1.02067 2.79654,2.10629 1.30969,1.08562 2.40263,1.97974 2.42877,1.98692 0.0261,0.007 -0.25805,-0.5525 -0.63153,-1.24372 z m -78.575547,0.39688 c -1.250368,-1.9446 -1.170764,-2.36052 0.591594,-3.09098 0.807675,-0.33476 1.529531,-0.54762 1.604125,-0.47303 0.231843,0.23184 -0.456361,3.48459 -0.780952,3.69111 -0.475052,0.30226 -1.179378,0.23898 -1.414767,-0.1271 z m 1.359668,-1.4161 c 0.09834,-0.52419 0.130896,-1.00098 0.07235,-1.05953 -0.05855,-0.0585 -0.47022,0.0204 -0.914829,0.17535 -0.791915,0.27607 -0.800478,0.29765 -0.420401,1.05953 0.52467,1.05173 1.046265,0.9793 1.26288,-0.17535 z m 35.031338,-1.01351 c -0.821452,-0.64488 -2.170404,-1.5545 -2.997666,-2.02138 -1.235147,-0.69707 -1.627834,-1.10112 -2.195963,-2.25952 -0.762373,-1.55445 -0.672393,-1.93357 0.348509,-1.46841 0.371264,0.16916 1.084866,0.30756 1.585781,0.30756 1.183889,0 3.172859,0.765 4.673669,1.79758 1.158769,0.79725 1.198356,0.87041 1.344745,2.48479 0.244477,2.69613 -0.436851,2.98243 -2.759075,1.15938 z m 2.155007,-0.93112 c 0,-1.25557 -0.04978,-1.34446 -1.193549,-2.13139 -1.570238,-1.08035 -2.872303,-1.60777 -4.523036,-1.83213 l -1.35096,-0.18361 0.507905,0.86083 c 0.288396,0.48879 1.14563,1.22074 1.983488,1.6936 0.811573,0.45803 2.064843,1.29855 2.785045,1.86784 0.720203,0.56928 1.41783,1.03506 1.550283,1.03506 0.132453,0 0.240824,-0.58959 0.240824,-1.3102 z m -41.809388,-2.57944 c -2.389976,-4.31542 -2.704636,-5.07884 -2.513434,-6.09804 0.167941,-0.8952 0.593142,-1.09241 1.151485,-0.53407 0.2585,0.2585 0.358216,0.20361 0.480651,-0.26458 0.158058,-0.60441 0.982007,-0.81382 1.283392,-0.32617 0.08994,0.14553 0.369065,0.26459 0.620285,0.26459 0.301458,0 0.753036,0.60724 1.328115,1.78594 0.479244,0.98226 1.457298,2.6858 2.173455,3.78564 0.716157,1.09984 1.302104,2.133 1.302104,2.2959 0,0.50269 -1.354898,1.39293 -2.119952,1.39293 -0.399119,0 -0.873891,0.1786 -1.055049,0.39688 -0.181157,0.21828 -0.465975,0.39687 -0.632928,0.39687 -0.166953,0 -1.075109,-1.39315 -2.018124,-3.09589 z m 3.633969,1.5725 c 1.52382,-0.21468 1.545936,-0.61422 0.152836,-2.7612 -0.697424,-1.07484 -1.612258,-2.68297 -2.032964,-3.57362 -0.553325,-1.17141 -0.933906,-1.65167 -1.375807,-1.73614 -0.360087,-0.0688 -0.667232,0.03 -0.74813,0.24087 -0.07548,0.19671 -0.418793,0.35765 -0.762909,0.35765 -0.344116,0 -0.695698,0.07 -0.781293,0.15563 -0.207823,0.20782 0.409742,1.53895 2.30028,4.95812 1.212963,2.19373 1.665587,2.80052 1.984375,2.66025 0.227143,-0.0999 0.795768,-0.23565 1.263612,-0.30156 z m 77.848703,-5.11296 c -0.80818,-0.57078 -2.07666,-1.18203 -2.81883,-1.35833 -1.2563,-0.29842 -1.35982,-0.38466 -1.50022,-1.24985 -0.0829,-0.51112 -0.0438,-1.03631 0.087,-1.16708 0.27572,-0.27572 2.65881,0.0232 2.65881,0.33348 0,0.1145 0.50239,0.43463 1.11643,0.71139 1.89798,0.85547 2.58773,1.59532 2.58773,2.77568 0,1.29263 -0.24382,1.28745 -2.13088,-0.0453 z m 1.18117,-0.79895 c -0.27802,-0.30767 -1.10081,-0.85979 -1.82841,-1.22695 -0.72761,-0.36716 -1.38245,-0.75268 -1.45521,-0.85671 -0.0728,-0.10403 -0.45971,-0.26927 -0.8599,-0.36721 -0.63323,-0.15498 -0.7276,-0.0998 -0.7276,0.42581 0,0.50806 0.21441,0.65482 1.35113,0.92484 0.74312,0.17652 1.89429,0.68072 2.55814,1.12044 1.31643,0.87196 1.75966,0.86264 0.96185,-0.0202 z m -86.467109,-3.30283 c -0.08851,-0.23066 -0.236707,-1.0641 -0.329318,-1.85209 -0.157442,-1.33958 -0.131626,-1.43269 0.397209,-1.43269 0.326362,0 0.565595,-0.16787 0.565595,-0.39688 0,-0.67883 0.91575,-0.43688 1.800181,0.47562 0.465109,0.47987 0.845652,1.00291 0.845652,1.16232 0,0.1594 0.178594,0.35836 0.396875,0.44212 0.218282,0.0838 0.396875,0.33462 0.396875,0.55747 0,0.59533 -0.820021,0.49416 -0.980892,-0.12101 -0.195895,-0.7491 -0.606608,-0.38226 -0.606608,0.54181 0,0.90162 -0.509827,1.02894 -0.996931,0.24896 -0.466236,-0.74656 -0.899236,-0.66464 -0.699218,0.1323 0.121869,0.48556 0.06038,0.66145 -0.231235,0.66145 -0.218488,0 -0.469671,-0.18872 -0.558185,-0.41938 z m 1.91879,-2.66864 c -0.215331,-0.25946 -0.394834,-0.28953 -0.586174,-0.0982 -0.151688,0.15169 -0.490109,0.2758 -0.752047,0.2758 -0.61058,0 -0.620207,0.50129 -0.01323,0.68885 0.254661,0.0787 0.641615,0.23816 0.859896,0.35436 0.528588,0.2814 0.92376,-0.70005 0.491554,-1.22082 z m 7.093169,0.53039 c -0.290264,-0.29027 -0.199191,-1.94028 0.107093,-1.94028 0.584136,0 1.094323,0.80362 0.928822,1.46303 -0.156503,0.62355 -0.658388,0.85477 -1.035915,0.47725 z m 12.655903,-10.84933 c -1.072256,-0.56898 -1.038924,-0.49842 -0.663578,-1.40458 0.607285,-1.46612 2.104126,-1.34034 2.114736,0.1777 0.0021,0.31883 0.123113,0.65328 0.268634,0.74322 0.145521,0.0899 0.264583,0.33509 0.264583,0.54478 0,0.50274 -0.978572,0.4726 -1.984375,-0.0611 z m 0.990052,-0.75215 c -0.156212,-0.81717 -0.574553,-1.11429 -0.880409,-0.6253 -0.154926,0.24769 -0.03937,0.51123 0.36031,0.82176 0.323609,0.25143 0.601636,0.45978 0.617836,0.46302 0.01619,0.003 -0.02778,-0.29353 -0.09774,-0.65948 z"
       id="path851"
       inkscape:connector-curvature="0"
       inkscape:export-xdpi="300"
       inkscape:export-ydpi="300" />
    <path
       style="fill:#000000;stroke-width:0.26458335"
       d="m 116.21743,114.41459 c -3.8808,-0.39854 -7.37799,-1.94582 -9.54505,-4.22307 -2.06391,-2.16886 -2.48517,-3.39161 -2.27431,-6.60153 0.23568,-3.58804 -0.54006,-6.842153 -0.97808,-4.102883 -0.0908,0.567773 -0.75417,2.204883 -1.47418,3.638023 -1.55411,3.09338 -3.530526,5.26999 -5.730153,6.31058 -1.328261,0.62837 -1.65852,0.67784 -3.498617,0.52408 -1.855669,-0.15505 -2.192552,-0.10278 -3.884129,0.60268 -3.651986,1.52304 -7.769318,2.0243 -13.096733,1.59446 -4.729343,-0.38159 -8.512457,-1.46143 -11.906251,-3.39849 -1.028954,-0.5873 -1.201723,-0.81116 -1.272357,-1.64869 -0.06923,-0.82093 0.07237,-1.12644 0.926042,-1.99806 1.045881,-1.06784 3.785553,-2.28562 6.63017,-2.94709 0.763984,-0.17765 1.389063,-0.37321 1.389063,-0.43458 0,-0.16132 -1.290169,-2.135013 -2.400397,-3.672103 -0.52554,-0.72761 -1.108617,-1.7117 -1.295726,-2.18689 -0.472568,-1.20013 -0.144951,-4.29066 0.590098,-5.56662 1.008449,-1.75055 2.808353,-3.95025 3.961711,-4.84168 0.620779,-0.4798 1.575517,-1.26521 2.121638,-1.74536 l 0.99295,-0.87299 h -0.914355 c -1.066737,0 -2.154166,-0.41851 -2.982017,-1.14767 -0.427813,-0.3768 -0.679583,-0.44155 -0.926042,-0.23815 -0.561129,0.4631 -3.567634,1.38582 -4.51545,1.38582 -1.510282,0 -3.555448,-0.76063 -4.538801,-1.68805 -0.855817,-0.80715 -0.979373,-0.84881 -1.479113,-0.49878 -0.29991,0.21007 -0.693851,0.32493 -0.875425,0.25525 -0.181574,-0.0697 -0.847539,-1.12209 -1.479921,-2.3387 -0.632382,-1.21661 -1.966581,-3.67502 -2.964885,-5.46313 -0.998305,-1.78811 -1.8151,-3.29924 -1.8151,-3.35805 0,-0.0588 -0.469158,-1.09613 -1.042574,-2.30514 l -1.042574,-2.1982 0.05039,-3.41722 c 0.03303,-2.24009 0.1522,-3.45127 0.34595,-3.51606 0.16256,-0.0544 1.635766,1.38703 3.273792,3.20308 2.49778,2.76924 3.179511,3.72059 4.225944,5.8973 0.686243,1.42747 1.832412,3.50214 2.547041,4.61037 0.71463,1.10823 1.423541,2.22692 1.575359,2.48598 0.22825,0.38947 0.374621,0.41824 0.845569,0.1662 0.313246,-0.16764 1.832328,-0.38207 3.375738,-0.4765 2.424947,-0.14838 2.858252,-0.24602 3.189327,-0.71869 0.543966,-0.77662 0.475413,-1.87285 -0.210639,-3.3683 l -0.593764,-1.29428 h -1.398156 c -2.366166,0 -6.374593,-2.29718 -7.571129,-4.33891 -0.772083,-1.31746 -0.875414,-2.4747 -0.317332,-3.55391 0.458417,-0.88649 2.705432,-3.0195 3.751822,-3.56148 0.423059,-0.21913 1.731217,-1.34677 2.907018,-2.50587 1.808764,-1.78307 2.351937,-2.16233 3.5289,-2.46398 1.174615,-0.30104 1.46641,-0.50418 1.875184,-1.30544 0.266255,-0.52191 0.901541,-1.17373 1.411745,-1.44849 0.813017,-0.43784 0.984197,-0.45263 1.38535,-0.1197 0.251741,0.20892 0.598181,0.71395 0.769866,1.12227 l 0.312158,0.7424 0.639491,-0.93428 c 0.75861,-1.10832 1.981919,-1.83021 2.883125,-1.70138 1.718392,0.24566 2.374466,3.17743 1.873472,8.37191 -0.295246,3.06121 -0.285763,3.20551 0.28829,4.38709 0.326467,0.67197 0.814649,1.29192 1.084847,1.37768 0.877258,0.27843 3.871106,3.30021 5.097677,5.14524 1.090795,1.64079 1.317784,1.83485 2.58009,2.20573 0.761238,0.22366 1.919851,0.47534 2.574695,0.55929 1.245894,0.15972 4.586404,1.84767 5.325327,2.69087 0.26102,0.29785 0.500269,1.23761 0.609476,2.39398 0.160113,1.69538 0.121383,1.96204 -0.35402,2.43745 l -0.533803,0.5338 1.164223,1.36392 c 1.896055,2.22128 4.372135,7.54818 4.372135,9.40595 0,0.48986 0.18634,0.63557 0.99218,0.77584 0.54571,0.095 2.12328,0.77511 3.50573,1.51136 4.0038,2.13233 4.45857,2.32817 6.06226,2.61065 2.40091,0.42292 4.87123,-0.0311 6.92458,-1.27269 1.4539,-0.87912 1.89675,-1.34506 3.09025,-3.2514 3.37747,-5.39474 3.54402,-9.55591 0.74174,-18.53207 -1.85959,-5.9566 -1.88725,-6.10531 -1.52647,-8.20919 0.93983,-5.48068 4.88379,-10.08425 10.23553,-11.94739 3.91504,-1.36297 9.18953,-0.92196 13.66934,1.14291 2.92495,1.3482 2.92,1.3316 1.34953,4.52521 -1.78526,3.63039 -2.27194,5.52202 -2.26404,8.79992 0.007,2.81885 0.44403,4.87098 2.33279,10.94848 1.17769,3.78949 1.51815,6.08931 1.18214,7.98539 -0.14026,0.79148 -0.48886,2.8678 -0.77466,4.61405 -0.74323,4.54112 -1.46002,7.10307 -2.67258,9.55231 -2.51223,5.074433 -7.00632,8.782583 -15.59624,12.868713 -4.74398,2.25666 -9.85441,3.1765 -14.81667,2.6669 z m 5.82777,-1.41853 c 3.01107,-0.36987 5.56874,-1.10844 8.37583,-2.41866 5.86595,-2.73798 10.22531,-5.70929 12.63416,-8.61138 2.64888,-3.191273 3.85585,-6.355453 4.92216,-12.903943 0.28435,-1.74625 0.57656,-3.53218 0.64936,-3.96875 0.1203,-0.72143 0.11184,-0.73272 -0.0928,-0.12395 -0.56851,1.69101 -2.50439,4.225 -3.22775,4.225 -0.28007,0 -0.65905,-0.24269 -0.84219,-0.53931 -0.18313,-0.29661 -1.13434,-1.13641 -2.1138,-1.86621 -0.97945,-0.7298 -1.94232,-1.55746 -2.13969,-1.83926 -0.19738,-0.28179 -0.76522,-0.80663 -1.26188,-1.1663 -0.85417,-0.61859 -1.31119,-0.89166 -4.67333,-2.79229 -0.76398,-0.43188 -1.38906,-0.68222 -1.38906,-0.55629 0,0.12592 1.17895,1.44813 2.61989,2.93824 2.17268,2.24684 2.82607,3.12743 3.82782,5.15888 0.66436,1.34727 1.3137,2.92035 1.44298,3.49572 0.12928,0.57537 0.34786,1.2477 0.48573,1.49407 0.22654,0.40481 0.30935,0.38547 0.86021,-0.20089 0.57297,-0.6099 0.58403,-0.68525 0.18437,-1.25584 -0.56732,-0.80997 -0.53593,-1.43685 0.104,-2.07677 0.74415,-0.74415 1.24188,-0.66312 2.27542,0.37041 1.21403,1.21403 1.26914,2.74032 0.13973,3.86972 -0.41791,0.41792 -1.10252,0.84147 -1.52135,0.94123 -0.99529,0.23706 -1.68755,0.85613 -1.68755,1.50914 0,0.9297 -1.05627,2.34313 -1.68413,2.25359 -0.83286,-0.11878 -0.93498,-1.8778 -0.16914,-2.91365 l 0.56496,-0.76415 -1.2326,-2.567 c -2.55538,-5.32183 -2.85139,-5.80539 -4.80549,-7.85024 -2.17194,-2.27279 -2.70149,-2.36223 -2.1676,-0.36609 0.51695,1.93283 -0.091,3.13973 -1.37622,2.73183 -0.5546,-0.17602 -1.30061,-2.45978 -1.30061,-3.98156 0,-1.0157 0.59083,-1.96449 1.22333,-1.96449 0.38384,0 0.29055,-0.44267 -0.3721,-1.76564 -0.35814,-0.71501 -0.36669,-0.9045 -0.0576,-1.27694 0.26021,-0.31353 0.27887,-0.4893 0.0659,-0.62091 -0.87959,-0.54362 -1.7364,-4.1306 -1.18624,-4.96607 0.32136,-0.488 2.37287,-1.4246 3.12042,-1.4246 1.89332,0 4.94432,2.71042 6.53766,5.80787 0.6201,1.20548 0.98735,1.70089 0.98735,1.33193 0,-0.33252 0.45888,-1.04636 1.05737,-1.64485 0.89212,-0.89211 1.18892,-1.03807 1.89902,-0.93385 l 0.84164,0.12353 -0.60541,-0.49023 c -0.33298,-0.26963 -0.7671,-0.49024 -0.96472,-0.49024 -0.19763,0 -1.1667,-0.52038 -2.15351,-1.1564 -0.9868,-0.63603 -2.3895,-1.45018 -3.1171,-1.80923 -1.5162,-0.74819 -4.74556,-1.38164 -5.75371,-1.12861 -0.79988,0.20076 -1.78691,-0.60681 -1.78691,-1.46201 0,-0.62144 0.88555,-1.5875 1.45521,-1.5875 0.28461,0 0.39687,-0.29049 0.39687,-1.02693 0,-0.86739 0.1474,-1.13935 0.94875,-1.75057 0.78179,-0.5963 1.24025,-0.72987 2.6051,-0.75901 0.911,-0.0195 1.82352,0.0983 2.02782,0.26166 0.44466,0.35556 2.88499,1.4403 2.88499,1.2824 0,-0.0608 -0.3459,-0.2895 -0.76868,-0.50812 -0.42277,-0.21863 -0.92879,-0.54986 -1.12448,-0.73608 -1.30257,-1.23952 -2.20097,-1.79043 -2.91976,-1.79043 -0.44196,0 -1.27508,-0.265 -1.85137,-0.5889 -1.01148,-0.56848 -1.0754,-0.57307 -1.84341,-0.13229 -1.10198,0.63245 -1.68156,0.57239 -2.32101,-0.24053 -0.69321,-0.88129 -0.68701,-1.13465 0.0549,-2.2403 0.71288,-1.06244 2.38019,-1.70495 3.75504,-1.44703 0.64606,0.12121 1.06187,0.42883 1.46811,1.08616 0.46291,0.749 0.72808,0.91706 1.44699,0.91706 0.64487,0 1.25807,0.30697 2.29352,1.14816 1.46567,1.1907 3.21096,2.34499 3.96529,2.62254 0.37045,0.1363 0.41461,0.006 0.2964,-0.8754 -0.11272,-0.84046 -0.008,-1.20717 0.55587,-1.94644 0.40459,-0.53045 0.62758,-1.08598 0.53389,-1.33012 -0.19333,-0.5038 0.33199,-1.20624 0.90208,-1.20624 0.61632,0 1.3775,0.80073 1.3775,1.44908 0,0.31533 -0.3472,1.03897 -0.77156,1.60811 -0.73523,0.98606 -0.75391,1.07701 -0.39687,1.93152 0.95112,2.27637 0.05,3.11041 -2.92449,2.70677 l -1.43728,-0.19504 0.81498,0.9282 c 0.58686,0.6684 1.08105,0.95551 1.76556,1.02573 1.31201,0.1346 2.60788,1.18884 2.94132,2.39289 0.15003,0.54177 0.39968,1.16362 0.55477,1.3819 0.31049,0.437 0.30412,0.39908 -0.31121,-1.85208 -0.179,-0.65484 -0.32638,-2.50031 -0.32753,-4.10104 -0.002,-3.45314 0.4324,-5.26556 2.10798,-8.78527 0.63763,-1.3394 1.15933,-2.484 1.15933,-2.54356 0,-0.0596 -0.70502,-0.42468 -1.56671,-0.81138 -4.16975,-1.87127 -9.03932,-2.28879 -12.63126,-1.08302 -4.88719,1.64058 -8.44796,5.72279 -9.36956,10.74165 -0.34596,1.88403 -0.30417,2.10711 1.45609,7.77325 2.79402,8.99367 2.70062,13.49731 -0.38959,18.78541 -1.34459,2.30092 -2.32442,3.3533 -4.35418,4.67654 -1.58503,1.03332 -1.58594,1.03466 -0.5839,0.85959 1.37014,-0.23938 3.18434,0.47911 3.94428,1.56208 0.32392,0.46161 0.74676,0.96014 0.93965,1.10783 0.56323,0.43128 1.6531,3.750883 1.6531,5.035173 0,0.64822 0.10282,1.17859 0.2285,1.17859 0.52365,0 1.62358,1.43398 1.62358,2.11666 0,0.94238 -1.16981,2.11667 -2.10859,2.11667 -0.39244,0 -1.61747,0.47625 -2.7223,1.05833 -1.59973,0.84282 -2.2899,1.05834 -3.38925,1.05834 -1.29563,0 -1.457,-0.0772 -2.6262,-1.25677 -1.93206,-1.94916 -2.26112,-3.32759 -1.9231,-8.05575 l 0.26837,-3.753793 0.90311,-0.82765 0.90311,-0.82764 -2.52393,0.0186 c -2.94788,0.0217 -3.86451,-0.2665 -7.73231,-2.43147 -1.40939,-0.7889 -2.96713,-1.52562 -3.46163,-1.63715 l -0.89909,-0.20277 v 2.39667 c 0,2.05628 0.0854,2.52253 0.60138,3.28285 0.8944,1.31797 1.24838,3.463863 1.03684,6.285463 -0.22083,2.94542 0.096,3.89656 1.92381,5.77477 2.92287,3.00351 8.2826,4.35016 14.34839,3.60506 z m -11.69056,-3.30284 c -0.92139,-0.50046 -1.81013,-1.96481 -1.81013,-2.98253 0,-0.84639 0.57665,-1.64131 1.19063,-1.64131 0.44502,0 1.19062,0.72056 1.19062,1.15065 0,0.17551 0.18236,0.57945 0.40524,0.89766 0.34825,0.49719 0.49708,0.53671 1.05833,0.28099 0.50992,-0.23234 0.6531,-0.49684 0.6531,-1.20647 0,-1.20675 -0.63511,-2.22279 -1.86432,-2.98248 -1.22237,-0.75546 -1.57526,-1.46504 -1.57526,-3.16744 0,-1.705843 0.38272,-2.477993 1.48992,-3.005973 1.12836,-0.53808 2.01584,-0.5498 3.00238,-0.0396 1.75605,0.90809 1.01801,2.9768 -0.81934,2.29659 -0.89402,-0.33098 -1.29422,-0.10982 -1.27555,0.70492 0.0118,0.513913 0.31624,0.923483 1.12085,1.507833 1.66283,1.20764 2.29296,2.51537 2.29822,4.76956 0.005,2.05437 -0.1595,2.38521 -1.61438,3.25113 -1.09902,0.65411 -2.43395,0.71854 -3.45031,0.16651 z m 20.90523,-4.89242 c -0.66692,-0.35236 -1.14893,-0.90023 -1.56095,-1.77425 -0.32785,-0.69545 -0.88203,-1.65147 -1.2315,-2.12446 -0.84448,-1.142973 -1.40207,-2.520013 -1.40207,-3.462573 0,-0.49771 -0.37219,-1.23514 -1.05834,-2.0969 -1.20595,-1.51461 -1.32491,-2.36598 -0.44596,-3.19171 1.18201,-1.11044 2.85048,-0.42921 4.16733,1.70151 0.4764,0.77082 0.54541,1.16001 0.40004,2.25589 -0.16268,1.22632 -0.11414,1.39445 0.65566,2.27121 0.45724,0.52076 1.04147,1.43704 1.29828,2.036163 0.60327,1.40738 1.22468,1.94203 1.81819,1.56436 0.32495,-0.20677 0.417,-0.57269 0.35016,-1.39192 -0.0631,-0.773393 0.0459,-1.262273 0.35824,-1.607453 0.4279,-0.47282 0.38871,-0.55626 -0.83675,-1.78172 -0.93172,-0.93173 -1.4152,-1.69661 -1.7562,-2.77839 -0.34776,-1.10321 -0.76626,-1.75544 -1.60384,-2.49956 -1.28783,-1.14411 -1.56489,-1.6935 -1.32868,-2.63465 0.227,-0.90443 1.21528,-1.24355 2.30143,-0.78973 1.31081,0.54769 3.32427,2.93625 3.52306,4.17938 0.11537,0.72148 0.4617,1.31926 1.1327,1.9551 0.53159,0.50373 1.31569,1.56136 1.74245,2.35028 0.76101,1.40684 0.76746,1.45214 0.3358,2.35734 -0.24206,0.50761 -0.68502,1.000673 -0.98434,1.095673 -0.42295,0.13424 -0.54423,0.39586 -0.54423,1.17399 0,0.76223 -0.20188,1.21591 -0.84565,1.9004 -1.8047,1.91887 -2.77132,2.19734 -4.48483,1.29202 z m 7.64094,-45.789323 c -1.28055,-0.67594 -2.57536,-2.44911 -2.57406,-3.52503 0.003,-2.8299 3.58453,-4.28684 5.59507,-2.2763 0.8722,0.87219 1.0271,2.40357 0.34207,3.3816 -0.22654,0.32342 -0.30065,0.58804 -0.16469,0.58804 0.44199,0 0.92542,-0.79971 1.08798,-1.7998 0.12121,-0.74569 0.28378,-0.97832 0.6837,-0.97832 0.44048,0 0.53786,0.2077 0.60686,1.29438 0.0797,1.25569 0.0412,1.3328 -1.28685,2.57968 -1.57132,1.47524 -2.56597,1.64582 -4.29008,0.73575 z m 0.95824,-3.96049 c -0.13083,-0.13083 -0.39449,-0.12901 -0.61004,0.004 -0.3211,0.19846 -0.32561,0.3497 -0.0292,0.98117 l 0.35037,0.74656 0.25966,-0.75076 c 0.14744,-0.42628 0.16008,-0.85034 0.0293,-0.98117 z M 83.745987,110.6049 c 0.985655,-0.13781 2.862662,-0.60625 4.171124,-1.04096 1.845747,-0.61322 2.853259,-0.7904 4.494639,-0.7904 2.624074,0 3.907298,-0.54594 5.798413,-2.46691 3.277157,-3.32889 5.040677,-9.094003 4.480627,-14.647583 -0.69957,-6.93706 -4.684113,-12.68689 -11.41034,-16.46552 -0.936546,-0.52613 -1.521354,-1.03062 -1.521354,-1.31242 0,-0.7943 -3.104637,-5.74724 -4.646317,-7.41244 -1.841661,-1.98921 -2.950189,-2.68278 -5.14186,-3.21709 -1.379548,-0.33632 -1.721199,-0.52104 -1.721199,-0.9306 0,-0.44069 0.159745,-0.49886 1.161217,-0.42287 1.046882,0.0794 1.138684,0.0404 0.932399,-0.39687 -0.235614,-0.4994 -0.240919,-0.98326 -0.07493,-6.83499 0.132977,-4.68794 -0.414411,-5.64159 -2.121945,-3.69681 -0.859232,0.97861 -2.020086,3.03535 -1.713196,3.03535 0.09827,0 -0.0377,0.23909 -0.302151,0.53131 -0.415102,0.45868 -0.538247,0.48113 -0.900901,0.1642 -2.327754,-2.03427 -5.050992,-1.51344 -7.879465,1.50695 -0.845045,0.90238 -2.072227,1.95648 -2.727071,2.34243 -0.654843,0.38596 -1.585603,1.11277 -2.068354,1.61515 -0.763332,0.79436 -0.817912,0.93636 -0.418777,1.08953 0.252423,0.0969 0.581916,0.0531 0.732208,-0.0971 0.150291,-0.15029 0.487569,-0.27325 0.749507,-0.27325 0.583065,0 0.613391,0.65683 0.07775,1.68389 -0.529362,1.015 -0.50726,1.14093 0.292168,1.66474 0.571332,0.37435 0.777656,0.39405 1.221819,0.11666 0.707716,-0.44197 1.26244,0.0284 0.836263,0.70918 -0.437943,0.69952 -1.896634,0.72829 -2.806831,0.0554 -0.425707,-0.31474 -0.826604,-0.51966 -0.890883,-0.45538 -0.338469,0.33847 4.407338,2.89354 5.582427,3.00549 0.436563,0.0416 1.418829,0.14151 2.182813,0.22203 1.317754,0.13889 1.389063,0.11497 1.389063,-0.46596 0,-0.78064 0.849098,-1.92482 2.463487,-3.31961 1.142048,-0.98671 1.414714,-1.09973 2.653107,-1.09973 2.280076,0 3.684104,1.23414 5.49614,4.8311 1.57916,3.13469 2.078212,5.12338 2.083356,8.30203 0.0037,2.29214 -0.04068,2.4837 -0.855986,3.69444 -0.568946,0.84489 -1.307507,1.51229 -2.182812,1.97249 -0.727604,0.38255 -1.926786,1.27989 -2.664847,1.9941 -0.73806,0.7142 -2.155558,2.07246 -3.149991,3.01835 -4.008811,3.8131 -5.164189,7.17619 -3.55663,10.35269 0.685294,1.35414 3.449484,3.767603 5.509728,4.810653 1.24019,0.62787 1.745073,1.03086 1.745073,1.39288 0,0.41101 -0.204409,0.51739 -1.058333,0.55079 -2.789164,0.10907 -8.94564,1.6307 -10.658041,2.63424 -1.461701,0.85661 -1.416123,1.50345 0.168461,2.3908 3.09745,1.73453 10.389104,2.47926 16.25043,1.65972 z M 68.923157,59.431167 c -0.758896,-0.32985 -0.859896,-0.49474 -0.859896,-1.40385 0,-1.23682 0.62288,-1.90586 1.774374,-1.90586 0.995723,0 1.407345,0.46843 1.586709,1.80568 0.116619,0.86946 0.04082,1.10112 -0.479531,1.46559 -0.740246,0.51849 -0.909762,0.52171 -2.021656,0.0384 z m 1.209027,-1.67679 c 0.05495,-0.37345 -0.05535,-0.57459 -0.315114,-0.57459 -0.514508,0 -0.785075,0.44321 -0.58649,0.96071 0.215456,0.56148 0.798939,0.31159 0.901604,-0.38612 z m 52.780326,49.702073 c 1.73273,-1.09886 1.58321,-2.13281 -0.41849,-2.89385 -1.60242,-0.60924 -0.99772,-1.99474 0.8706,-1.99474 1.22759,0 1.25663,-0.11444 0.52515,-2.06949 -0.94108,-2.515263 -1.95234,-3.056363 -4.06352,-2.174263 -1.0897,0.45531 -1.13017,0.57484 -1.36535,4.032603 -0.16219,2.38451 -0.14586,2.48265 0.64215,3.85995 0.729,1.27416 1.50961,1.95983 2.2881,2.00981 0.15341,0.01 0.83802,-0.33666 1.52136,-0.77002 z m -58.127214,0.30621 c -0.287181,-0.46467 0.873665,-1.80289 2.181293,-2.51459 1.356876,-0.7385 6.849076,-2.28374 8.202502,-2.30779 l 0.699379,-0.0124 -0.926042,-0.71519 c -0.509323,-0.39334 -1.576263,-1.31049 -2.370979,-2.03809 -1.438358,-1.316893 -1.45426,-1.194273 -0.101989,0.78647 0.489381,0.71682 0.446432,1.39629 -0.10672,1.68831 -0.254661,0.13443 -1.236927,0.43864 -2.182812,0.676 -2.613432,0.65583 -5.07711,1.73588 -5.88698,2.58078 -0.88334,0.92155 -0.917384,1.37209 -0.132291,1.75072 0.753328,0.36332 0.787361,0.36909 0.624639,0.1058 z m 5.669282,-10.278313 c -2.022416,-3.77339 0.309049,-8.99871 6.034358,-13.52431 0.776285,-0.61361 1.261145,-1.11566 1.077466,-1.11566 -0.183679,0 -0.998043,0.57178 -1.809698,1.27063 -0.811654,0.69885 -1.931696,1.61318 -2.488983,2.03184 -2.106653,1.58263 -4.255409,4.93838 -4.520443,7.05964 -0.202739,1.62266 0.01368,2.32702 1.267104,4.12382 0.963642,1.38141 1.129048,1.43929 0.440196,0.15404 z m 75.595892,-11.95672 c 1.02381,-1.84064 1.05654,-3.31671 0.1194,-5.38353 -0.6595,-1.45451 -0.98574,-1.85702 -1.87131,-2.3088 -0.5899,-0.30095 -1.29314,-0.54718 -1.56275,-0.54718 -0.66354,0 -1.83151,1.27385 -2.06203,2.24896 -0.10321,0.43657 -0.28355,0.91689 -0.40076,1.06739 -0.33629,0.43179 0.18084,2.22325 0.85929,2.97681 1.28867,1.43133 3.61285,3.22637 4.04452,3.12372 0.13866,-0.033 0.5318,-0.56279 0.87364,-1.17737 z m 2.89145,-2.46828 c -0.0845,-0.21107 -0.14716,-0.14837 -0.15985,0.15985 -0.0115,0.27892 0.0511,0.43519 0.13896,0.34727 0.0879,-0.0879 0.0973,-0.31613 0.0209,-0.50712 z m -79.727182,-2.19229 c 0.793457,-0.37537 1.635621,-0.977 1.871477,-1.33696 0.446737,-0.68181 1.05662,-0.85273 1.349834,-0.3783 0.09388,0.15189 0.02805,0.44803 -0.146278,0.65809 -0.954493,1.15009 1.036638,2.06196 4.224049,1.93446 5.618539,-0.22474 7.638709,-3.19051 6.233338,-9.15103 -0.427358,-1.81253 -2.502736,-6.18824 -3.400904,-7.17044 -1.419336,-1.55213 -3.104206,-1.77236 -4.362175,-0.57017 -0.456822,0.43656 -0.920965,0.79456 -1.031431,0.79556 -0.39783,0.004 -1.39147,1.76637 -1.39147,2.46857 0,0.58594 -0.145854,0.74702 -0.79375,0.8766 -0.929163,0.18583 -0.896563,0.0996 -0.398505,1.05454 0.39567,0.75867 0.521044,2.65587 0.243747,3.6885 -0.248476,0.92532 -1.393722,1.35284 -4.078576,1.52253 -2.737588,0.17302 -4.903453,0.77328 -5.269268,1.46034 -0.238,0.44701 -0.394045,1.82685 -0.325444,2.87778 0.07271,1.11381 2.623492,2.26668 4.58923,2.07418 0.683912,-0.067 1.892669,-0.42889 2.686126,-0.80425 z m 78.863732,-2.18707 c -0.48592,-1.80772 -0.79894,-2.6056 -0.85745,-2.18562 -0.0507,0.36381 -0.17816,0.7516 -0.28329,0.86178 -0.10513,0.11017 0.20087,1.00314 0.68,1.98437 0.47912,0.98124 0.87287,1.95274 0.875,2.15889 0.002,0.20615 0.082,0.29671 0.17745,0.20124 0.0955,-0.0955 -0.1708,-1.45477 -0.59171,-3.02066 z m -10.07046,0.0914 c -1.19309,-2.29822 -1.93821,-3.20174 -3.69585,-4.48155 -0.80952,-0.58944 -1.21957,-0.71888 -1.92178,-0.60662 -0.49098,0.0785 -0.93809,0.18811 -0.99359,0.24362 -0.28128,0.28127 1.17072,2.26161 2.12153,2.89351 0.59821,0.39756 2.0732,1.49889 3.27775,2.4474 1.20455,0.9485 2.22943,1.72455 2.2775,1.72455 0.0481,0 -0.43143,-0.99941 -1.06556,-2.22091 z m -77.708096,0.43032 c 0.168544,-0.10725 0.3873,-0.67097 0.486124,-1.25272 0.09882,-0.58175 0.235676,-1.26243 0.304116,-1.51262 0.112153,-0.40998 -0.0011,-0.40006 -1.147583,0.10046 -1.617018,0.70596 -1.55628,0.62638 -1.129023,1.47931 0.697892,1.39319 0.902982,1.55678 1.486366,1.18557 z m 37.580255,-1.71514 c 0.136602,-0.1819 0.199068,-0.9581 0.138811,-1.72489 -0.103073,-1.3116 -0.180969,-1.44328 -1.315561,-2.2239 -1.524667,-1.049 -3.501091,-1.8059 -4.715598,-1.8059 -0.517329,0 -1.176559,-0.12628 -1.464958,-0.28063 -0.483531,-0.25877 -0.472784,-0.17884 0.138004,1.02649 0.522372,1.03085 0.978273,1.4854 2.157058,2.15067 0.822084,0.46395 2.166795,1.37118 2.988247,2.01605 1.644211,1.29078 1.715362,1.31967 2.073997,0.84211 z m 48.679231,-1.36152 c -0.078,-0.20313 -0.28375,-0.88774 -0.45735,-1.52135 -0.65617,-2.39503 -1.65251,-4.39148 -2.41693,-4.84303 -0.95544,-0.5644 -1.7576,-0.31806 -1.95309,0.59979 -0.0832,0.39048 -0.25419,0.96622 -0.38003,1.27941 -0.19773,0.49207 -0.0424,0.69635 1.14279,1.50338 0.75438,0.51367 1.90738,1.46257 2.56222,2.10868 1.22968,1.21328 1.74866,1.51489 1.50239,0.87312 z m -86.947151,-0.81632 c 0.270678,0.0859 0.748121,-0.10373 1.154072,-0.45839 l 0.692399,-0.60491 -1.262173,-1.88795 c -0.694195,-1.03837 -1.671956,-2.73501 -2.172803,-3.77031 -0.613463,-1.26809 -1.061539,-1.88237 -1.373067,-1.88237 -0.25434,0 -0.536021,-0.11906 -0.625958,-0.26458 -0.249147,-0.40313 -0.661459,-0.31549 -0.661459,0.14059 0,0.53848 -0.708432,0.78876 -1.163526,0.41106 -0.287458,-0.23856 -0.396744,-0.167 -0.524936,0.34376 -0.193605,0.77138 0.187525,1.66442 2.466011,5.7782 l 1.70359,3.07581 0.653088,-0.51372 c 0.359198,-0.28255 0.860841,-0.44778 1.114762,-0.36719 z m 79.180741,-6.53926 c -0.26557,-0.2939 -1.07816,-0.83477 -1.80577,-1.20192 -0.7276,-0.36716 -1.38245,-0.75605 -1.45521,-0.86421 -0.18085,-0.26882 -1.78536,-0.60017 -2.06609,-0.42667 -0.12481,0.0771 -0.17753,0.47681 -0.11716,0.88816 0.0962,0.65522 0.27751,0.78776 1.46302,1.06937 0.74429,0.1768 2.0145,0.77603 2.82268,1.33161 l 1.46943,1.01015 0.086,-0.63606 c 0.0473,-0.35004 -0.13115,-0.87635 -0.39688,-1.17043 z m -84.05546,-4.89312 c 0.311191,-0.11941 0.210495,-0.3445 -0.466672,-1.04316 -0.971687,-1.00252 -1.246739,-1.10115 -1.193304,-0.42787 0.02626,0.33094 -0.133075,0.44504 -0.558565,0.4 -0.641502,-0.0679 -0.712675,0.31559 -0.355417,1.91511 0.164726,0.73751 0.188871,0.75157 0.3408,0.19843 0.21087,-0.76772 0.598298,-0.75468 1.19289,0.0401 l 0.475373,0.63546 0.08404,-0.78292 c 0.04622,-0.43061 0.262607,-0.85145 0.480854,-0.9352 z m 6.85865,-1.55976 c -0.373059,-0.37306 -0.412086,-0.35183 -0.412086,0.22417 0,0.81685 0.302765,1.11962 0.595868,0.59587 0.150228,-0.26844 0.08738,-0.54888 -0.183782,-0.82004 z m 13.663748,-9.68762 c -0.174625,-0.17463 -0.319323,-0.56158 -0.321551,-0.8599 -0.0096,-1.28326 -0.984837,-1.49463 -1.515824,-0.32852 -0.227989,0.50069 -0.151276,0.64159 0.561768,1.03181 0.999218,0.54682 1.759117,0.64012 1.275607,0.15661 z"
       id="path853"
       inkscape:connector-curvature="0"
       inkscape:export-xdpi="300"
       inkscape:export-ydpi="300" />
  </g>
</svg>
